<?xml version="1.0" standalone="no"?>
<!DOCTYPE svg PUBLIC "-//W3C//DTD SVG 20010904//EN"
 "http://www.w3.org/TR/2001/REC-SVG-20010904/DTD/svg10.dtd">
<svg version="1.0" xmlns="http://www.w3.org/2000/svg"
 width="512.000000pt" height="512.000000pt" viewBox="0 0 512.000000 512.000000"
 preserveAspectRatio="xMidYMid meet">
<metadata>
Created by potrace 1.11, written by Peter Selinger 2001-2013
</metadata>
<g transform="translate(0.000000,512.000000) scale(0.100000,-0.100000)"
fill="#000000" stroke="none">
<path d="M2345 4134 c-583 -44 -967 -138 -1380 -340 -492 -239 -813 -570 -932
-959 -25 -84 -27 -102 -27 -275 0 -173 2 -191 27 -275 119 -389 440 -720 932
-959 361 -176 737 -279 1205 -328 148 -15 632 -15 780 0 468 49 844 152 1205
328 492 239 813 570 932 959 25 84 27 102 27 275 0 173 -2 191 -27 275 -75
244 -222 459 -446 648 -406 342 -1000 568 -1676 637 -105 11 -535 21 -620 14z
m575 -199 c850 -80 1535 -404 1859 -878 48 -70 108 -205 133 -294 29 -109 29
-297 0 -406 -111 -411 -511 -763 -1120 -986 -592 -216 -1363 -261 -2037 -120
-636 133 -1153 430 -1414 812 -48 70 -108 205 -133 294 -29 109 -29 297 0 406
87 321 349 606 762 829 327 176 763 299 1215 343 183 17 549 18 735 0z"/>
<path d="M1625 3715 c-563 -156 -974 -436 -1144 -778 -28 -56 -58 -129 -67
-162 -35 -134 -28 -321 18 -442 20 -55 133 -213 220 -308 63 -69 215 -193 316
-259 85 -54 332 -180 332 -169 0 5 -21 42 -46 83 -108 180 -110 332 -4 405
163 112 446 -20 603 -281 17 -30 34 -54 37 -54 3 0 14 22 24 50 43 119 129
200 214 200 163 0 339 -226 426 -547 13 -48 26 -81 29 -73 3 8 15 51 27 95 79
296 252 515 407 515 24 0 56 -6 71 -14 59 -31 115 -110 142 -203 7 -24 16 -43
19 -43 3 0 26 33 51 73 149 241 413 366 577 271 116 -67 122 -229 17 -408 -19
-32 -33 -63 -32 -68 5 -15 215 94 333 172 134 90 299 251 373 364 371 569 -8
1215 -889 1519 -107 37 -330 99 -336 93 -2 -2 17 -34 43 -72 126 -188 185
-400 155 -558 -39 -210 -204 -359 -359 -325 -66 14 -123 56 -167 121 -62 95
-72 141 -105 500 -17 183 -32 333 -34 335 -2 2 -39 -37 -82 -87 l-79 -90 -155
0 -155 0 -69 90 c-38 50 -70 89 -72 87 -2 -2 -17 -152 -34 -333 -36 -395 -51
-451 -143 -552 -206 -223 -534 30 -502 388 11 130 73 287 167 425 19 28 38 56
42 63 12 20 -39 14 -169 -23z"/>
</g>
</svg>
